<?xml version="1.0" encoding="iso-8859-1"?>
<!-- Uploaded to: SVG Repo, www.svgrepo.com, Generator: SVG Repo Mixer Tools -->
<svg height="800px" width="800px" version="1.1" id="Capa_1" xmlns="http://www.w3.org/2000/svg" xmlns:xlink="http://www.w3.org/1999/xlink" 
	 viewBox="0 0 298.273 298.273" xml:space="preserve">
<g>
	<path style="fill:#010002;" d="M116.469,246.759h65.834c3.008,0,5.439-2.437,5.439-5.439v-2.703c0-3.002-2.431-5.439-5.439-5.439
		h-65.834c-3.008,0-5.439,2.437-5.439,5.439v2.703C111.03,244.328,113.462,246.759,116.469,246.759z"/>
	<path style="fill:#010002;" d="M111.03,263.175c0,3.002,2.431,5.439,5.439,5.439h65.834c3.008,0,5.439-2.437,5.439-5.439v-2.709
		c0-3.002-2.431-5.439-5.439-5.439h-65.834c-3.008,0-5.439,2.437-5.439,5.439V263.175z"/>
	<path style="fill:#010002;" d="M149.392,298.273c15.964,0,28.909-4.792,28.909-10.704c0-5.912,0-10.71,0-10.71h-57.828v10.71
		C120.473,293.481,133.418,298.273,149.392,298.273z"/>
	<path style="fill:#010002;" d="M149.136,0C92.472,0,46.371,46.096,46.371,102.755c0,32.063,14.549,61.695,40.352,81.662
		c2.671,3.22,5.145,11.547,7.071,19.836c2.649,11.395,14.495,20.799,27.456,20.799h55.772c12.961,0,24.764-9.502,27.456-21
		c1.942-8.278,4.471-16.611,7.316-19.94c25.156-19.401,40.108-49.653,40.108-81.358C251.897,46.096,205.801,0,149.136,0z
		 M153.586,160.257h-8.926v-47.728c-4.601-3.182-11.068-9.187-11.819-13.483c-0.174-1.001-0.005-1.735,0.587-2.54
		c1.447-1.942,2.736-2.295,3.573-2.393c3.117-0.413,7.174,2.366,8.311,3.323l3.835,3.285l3.845-3.274
		c1.148-0.984,5.047-3.748,8.278-3.34c0.832,0.092,2.121,0.446,3.557,2.388c0.604,0.805,0.778,1.545,0.598,2.545
		c-0.756,4.297-7.256,10.302-11.852,13.483v47.733H153.586z M185.698,152.359l-2.605,2.29c-8.784,9.143-14.038,20.168-17.149,29.338
		h-5.863v-61.587c2.535-1.724,15.039-10.671,16.905-21.31c0.745-4.177-0.201-8.175-2.725-11.58
		c-3.068-4.123-7.131-6.57-11.754-7.071c-5.314-0.56-10.144,1.512-13.353,3.416c-3.22-1.909-8.082-3.998-13.396-3.416
		c-4.629,0.506-8.692,2.948-11.754,7.071c-2.518,3.399-3.459,7.403-2.725,11.574c1.86,10.546,14.152,19.428,16.845,21.261v61.635
		h-5.803c-3.079-9.089-8.278-19.999-16.915-29.088l-2.437-2.187c-0.533-0.408-1.082-0.794-1.387-0.979
		c-15.333-11.808-24.139-29.659-24.139-48.973c0-34.016,27.679-61.69,61.695-61.69s61.695,27.674,61.695,61.69
		C210.832,122.482,201.667,140.556,185.698,152.359z"/>
</g>
</svg>